<svg xmlns="http://www.w3.org/2000/svg" width="85.07mm" height="27.08mm" viewBox="0 0 241.13 76.75"><defs><style>.cls-1{fill:#b11611;}.cls-2{fill:#fff;}</style></defs><title>koga_logo_red</title><rect class="cls-1" width="241.13" height="76.75"/><path class="cls-2" d="M191.13,32.57l-5.55,6.66h10ZM91.21,32c-7.12.87-11.49,2.12-11.11,7.21.74,9.76,28.17,8.57,28.32-.55C108.53,31.29,97.84,31.2,91.21,32Zm28.86,10c-5.31,10.56-52.23,12.86-52.73-2.22-.52-15.51,48.17-16.62,52.18-3.33,5.73-8.48,31.56-10.64,46-7.77l.12,3.33s-32.83-3-32.75,7.77c0,3.54,4.91,5.74,10,6.11a48.08,48.08,0,0,0,10.8-.54L153.9,40l-7.74-.06V37.34l17.81.07,0,9,20.64-18.92h15l16.54,22.25H202.79l-4.64-6.39h-15l-7.56,6.39H153.8C139.23,49.56,125.55,51,120.07,42Z"/><polygon class="cls-2" points="56.23 37.57 73.18 49.8 56.23 49.78 41.8 38.68 40.13 49.78 25.7 49.78 29.59 27.58 43.03 27.53 41.8 36.46 58.46 27.53 74.19 27.53 56.23 37.57"/></svg>
