<svg xmlns="http://www.w3.org/2000/svg" width="85.07mm" height="33.21mm" viewBox="0 0 241.13 94.13"><defs><style>.cls-1{fill:#0080c7;}.cls-2{fill:#fff;}</style></defs><title>koga_logo_red</title><rect class="cls-1" width="241.13" height="94.13"/><path class="cls-2" d="M191.13,32.57l-5.55,6.66h10ZM91.21,32c-7.12.87-11.49,2.12-11.11,7.21.74,9.76,28.17,8.57,28.32-.55C108.53,31.29,97.84,31.2,91.21,32Zm28.86,10c-5.31,10.56-52.23,12.86-52.73-2.22-.52-15.51,48.17-16.62,52.18-3.33,5.73-8.48,31.56-10.64,46-7.77l.12,3.33s-32.83-3-32.75,7.77c0,3.54,4.91,5.74,10,6.11a48.08,48.08,0,0,0,10.8-.54L153.9,40l-7.74-.06V37.34l17.81.07,0,9,20.64-18.92h15l16.54,22.25H202.79l-4.64-6.39h-15l-7.56,6.39H153.8C139.23,49.56,125.55,51,120.07,42Z"/><polygon class="cls-2" points="56.23 37.57 73.18 49.8 56.23 49.78 41.8 38.68 40.13 49.78 25.7 49.78 29.59 27.58 43.03 27.53 41.8 36.46 58.46 27.53 74.19 27.53 56.23 37.57"/><path class="cls-2" d="M40.41,70.6a8.25,8.25,0,0,1-3.38.61c-3.61,0-6.33-2.28-6.33-6.48A6.38,6.38,0,0,1,37.39,58a6.87,6.87,0,0,1,3,.57L40,59.92a6.09,6.09,0,0,0-2.58-.53c-3,0-5,1.92-5,5.28,0,3.13,1.8,5.15,4.92,5.15a6.69,6.69,0,0,0,2.7-.53Z"/><path class="cls-2" d="M49.11,65h-5v4.62h5.55V71h-7.2V58.21H49.4V59.6H44.13v4h5Z"/><path class="cls-2" d="M51.83,71V58.21h1.8l4.11,6.48A36.57,36.57,0,0,1,60,68.85l0,0c-.15-1.71-.19-3.27-.19-5.26V58.21h1.56V71H59.77l-4.06-6.5a40.45,40.45,0,0,1-2.4-4.28l-.06,0c.1,1.62.14,3.16.14,5.28V71Z"/><path class="cls-2" d="M66.76,59.62H62.87V58.21h9.48v1.41H68.43V71H66.76Z"/><path class="cls-2" d="M80.4,65h-5v4.62H81V71h-7.2V58.21h6.92V59.6H75.43v4h5Z"/><path class="cls-2" d="M83.12,58.38a17.34,17.34,0,0,1,3.17-.26,5.26,5.26,0,0,1,3.71,1,3.19,3.19,0,0,1,1,2.43,3.37,3.37,0,0,1-2.42,3.27v.06a3.17,3.17,0,0,1,1.88,2.58,21.28,21.28,0,0,0,1,3.52H89.75A17,17,0,0,1,88.9,68c-.38-1.77-1.07-2.43-2.57-2.49H84.77V71H83.12Zm1.65,5.83h1.7c1.76,0,2.88-1,2.88-2.43,0-1.65-1.19-2.37-2.94-2.39a7.26,7.26,0,0,0-1.64.15Z"/><path class="cls-2" d="M106.32,70.6a8.25,8.25,0,0,1-3.38.61c-3.61,0-6.33-2.28-6.33-6.48A6.38,6.38,0,0,1,103.3,58a6.87,6.87,0,0,1,3,.57l-.4,1.35a6.09,6.09,0,0,0-2.58-.53c-3,0-5,1.92-5,5.28,0,3.13,1.8,5.15,4.92,5.15a6.69,6.69,0,0,0,2.7-.53Z"/><path class="cls-2" d="M118.94,64.48c0,4.41-2.68,6.74-6,6.74s-5.76-2.62-5.76-6.49c0-4.07,2.53-6.73,6-6.73S118.94,60.68,118.94,64.48Zm-9.94.21c0,2.73,1.48,5.19,4.08,5.19s4.11-2.42,4.11-5.32c0-2.55-1.33-5.21-4.09-5.21S109,61.88,109,64.69Z"/><path class="cls-2" d="M121.08,58.36a19.73,19.73,0,0,1,3.18-.24,5.29,5.29,0,0,1,3.59,1.06A3.46,3.46,0,0,1,129,61.86a3.73,3.73,0,0,1-1,2.73A5.26,5.26,0,0,1,124.07,66a6,6,0,0,1-1.33-.11V71h-1.66Zm1.66,6.18a5.74,5.74,0,0,0,1.36.13c2,0,3.21-1,3.21-2.74s-1.19-2.5-3-2.5a6.65,6.65,0,0,0-1.55.13Z"/><path class="cls-2" d="M137.82,65h-5v4.62h5.55V71h-7.2V58.21h6.92V59.6h-5.27v4h5Z"/><path class="cls-2" d="M140.54,71V58.21h1.8l4.11,6.48a36.57,36.57,0,0,1,2.3,4.16l0,0c-.15-1.71-.19-3.27-.19-5.26V58.21h1.56V71h-1.67l-4.07-6.5A42.16,42.16,0,0,1,142,60.24l-.06,0c.1,1.62.14,3.16.14,5.28V71Z"/><path class="cls-2" d="M154.69,58.21v5.36h6.2V58.21h1.67V71h-1.67V65h-6.2v6H153V58.21Z"/><path class="cls-2" d="M167.5,67l-1.33,4h-1.71l4.35-12.81h2L175.17,71h-1.76L172,67Zm4.2-1.29L170.44,62c-.28-.84-.47-1.59-.66-2.34h0c-.19.76-.4,1.54-.64,2.32l-1.26,3.71Z"/><path class="cls-2" d="M186.52,70.45a12.15,12.15,0,0,1-3.94.7A6,6,0,0,1,176,64.69c0-3.82,2.64-6.61,6.94-6.61a7.84,7.84,0,0,1,3.19.59l-.4,1.35a6.57,6.57,0,0,0-2.83-.55,4.78,4.78,0,0,0-5.15,5.14c0,3.25,2,5.17,4.94,5.17a5.39,5.39,0,0,0,2.2-.34V65.62h-2.6V64.29h4.22Z"/><path class="cls-2" d="M195.68,65h-5v4.62h5.55V71h-7.2V58.21H196V59.6H190.7v4h5Z"/><path class="cls-2" d="M198.39,71V58.21h1.81l4.1,6.48a36.57,36.57,0,0,1,2.3,4.16l0,0c-.15-1.71-.19-3.27-.19-5.26V58.21H208V71h-1.68l-4.06-6.5a40.31,40.31,0,0,1-2.39-4.28l-.06,0c.09,1.62.13,3.16.13,5.28V71Z"/></svg>
