<svg xmlns="http://www.w3.org/2000/svg" width="8.94mm" height="7.29mm" viewBox="0 0 25.35 20.66"><defs><style>.cls-1{fill:#fff;}</style></defs><title>tw_white</title><g id="Layer_3" data-name="Layer 3"><path class="cls-1" d="M0,18.33a10.64,10.64,0,0,0,7.64-2.15,5.36,5.36,0,0,1-4.86-3.63,5.73,5.73,0,0,0,2.33-.11,5.2,5.2,0,0,1-3-1.85A5.06,5.06,0,0,1,1,7.28a5.49,5.49,0,0,0,2.33.63A5.25,5.25,0,0,1,1.71,1,14.92,14.92,0,0,0,12.44,6.41c0-.34-.07-.65-.09-1A5.2,5.2,0,0,1,18.42.08a5.09,5.09,0,0,1,2.76,1.41.39.39,0,0,0,.42.1A10.37,10.37,0,0,0,24.39.53L24.66.4A5.29,5.29,0,0,1,22.5,3.19l0,.07c.47-.1.94-.18,1.4-.31s.91-.29,1.42-.47a7.74,7.74,0,0,1-.6.79C24.16,3.86,23.56,4.43,23,5a.41.41,0,0,0-.17.38A15.1,15.1,0,0,1,18,16.78a13.53,13.53,0,0,1-7.23,3.63,15.2,15.2,0,0,1-8-.67A14.82,14.82,0,0,1,.12,18.42Z"/></g></svg>
