<svg xmlns="http://www.w3.org/2000/svg" width="10.58mm" height="7.33mm" viewBox="0 0 29.99 20.79"><defs><style>.cls-1{fill:#fff;}</style></defs><title>yt_white</title><g id="Layer_4" data-name="Layer 4"><path class="cls-1" d="M15.78,20.79c-3.88-.13-6.86-.21-9.85-.34a11.44,11.44,0,0,1-2.54-.36,4,4,0,0,1-3-3.45,50.44,50.44,0,0,1-.25-10c0-1,.23-2,.34-2.94A4.06,4.06,0,0,1,4.09.45,92.26,92.26,0,0,1,15.84,0c2.65,0,5.3.13,8,.23a17.41,17.41,0,0,1,2.5.3,3.74,3.74,0,0,1,3.22,3.31A35.77,35.77,0,0,1,30,11.37c-.06,1.84-.22,3.68-.46,5.5a3.83,3.83,0,0,1-3.58,3.36C22.24,20.48,18.57,20.64,15.78,20.79Zm-3.62-15V15l7.5-4.6Z"/></g></svg>
